PathFileType	4	(X/Y/Z)	/tmp/tmp8ooq684z//results/MarkerData/rotated_Sprint_04500001.trc
DataRate	CameraRate	NumFrames	NumMarkers	Units	OrigDataRate	OrigDataStartFrame	OrigNumFrames
200	200	9	46	m	200	686	785
Frame#	Time	C7			L.ASIS			L.PSIS			L_5meta			L_Shoulder			L_ankle			L_calc			L_elbow_lat			L_elbow_med			L_forearm			L_humerus			L_knee			L_sh2			L_sh3			L_shank_antsup			L_thigh1			L_thigh2			L_thigh3			L_thigh4			L_toe			L_wrist_radius			L_wrist_ulna			R_Shoulder			R_elbow_lat			R_elbow_med			R_forearm			R_humerus			R_wrist_radius			R_wrist_ulna			Sternum			r.ASIS			r.PSIS			r_5meta			r_ankle			r_calc			r_knee			r_sh2			r_sh3			r_sh4			r_shank_antsup			r_thigh1			r_thigh2			r_thigh3			r_thigh4			r_thigh5			r_toe		
		X1	Y1	Z1	X2	Y2	Z2	X3	Y3	Z3	X4	Y4	Z4	X5	Y5	Z5	X6	Y6	Z6	X7	Y7	Z7	X8	Y8	Z8	X9	Y9	Z9	X10	Y10	Z10	X11	Y11	Z11	X12	Y12	Z12	X13	Y13	Z13	X14	Y14	Z14	X15	Y15	Z15	X16	Y16	Z16	X17	Y17	Z17	X18	Y18	Z18	X19	Y19	Z19	X20	Y20	Z20	X21	Y21	Z21	X22	Y22	Z22	X23	Y23	Z23	X24	Y24	Z24	X25	Y25	Z25	X26	Y26	Z26	X27	Y27	Z27	X28	Y28	Z28	X29	Y29	Z29	X30	Y30	Z30	X31	Y31	Z31	X32	Y32	Z32	X33	Y33	Z33	X34	Y34	Z34	X35	Y35	Z35	X36	Y36	Z36	X37	Y37	Z37	X38	Y38	Z38	X39	Y39	Z39	X40	Y40	Z40	X41	Y41	Z41	X42	Y42	Z42	X43	Y43	Z43	X44	Y44	Z44	X45	Y45	Z45	X46	Y46	Z46

687	3.43	0.823719	1.57495	-0.272571	0.936042	1.04415	-0.420297	0.743444	1.0967	-0.321296	1.32792	0.113594	-0.44324	0.825487	1.56401	-0.451144	1.16832	0.146271	-0.399007	1.13565	0.117795	-0.329984	0.562193	1.38015	-0.556195	0.543224	1.33235	-0.472599	0.690683	1.28137	-0.566778	0.669121	1.40861	-0.549272	1.03416	0.557712	-0.446341	1.00582	0.434991	-0.441893	1.04853	0.324225	-0.421331	1.09283	0.456839	-0.452238	1.03872	0.790449	-0.462631	1.07419	0.657503	-0.437812	0.925838	0.760213	-0.485936	0.966534	0.630542	-0.445387	1.36562	0.161867	-0.394169	0.798192	1.24784	-0.521936	0.760251	1.19499	-0.556031	0.896329	1.55551	-0.0996967	0.786426	1.26745	0.075113	0.754326	1.23088	-0.00498113	0.938685	1.27087	-0.0129966	0.883075	1.3502	0.01198	1.02747	1.26586	-0.0812841	1.0357	1.22392	-0.0527765	0.973494	1.49078	-0.31099	0.95986	1.01931	-0.16005	0.753938	1.09768	-0.213726	0.191631	0.278746	-0.155311	0.280158	0.395616	-0.175034	0.257891	0.463571	-0.245078	0.692741	0.569412	-0.151932	0.483393	0.445982	-0.152862	0.567576	0.553131	-0.123094	0.458499	0.523749	-0.146455	0.595566	0.486778	-0.143041	0.875517	0.729552	-0.138202	0.817838	0.630121	-0.157797	0.767524	0.620064	-0.137949	0.776715	0.771479	-0.0981181	0.724047	0.670594	-0.130236	0.228043	0.232402	-0.205101
688	3.435	0.824414	1.5737	-0.273834	0.934615	1.04293	-0.42036	0.742132	1.09516	-0.321365	1.32826	0.111526	-0.441729	0.827251	1.56205	-0.452405	1.16823	0.144993	-0.398182	1.13577	0.117257	-0.328936	0.564304	1.37707	-0.55756	0.545392	1.32892	-0.474198	0.693075	1.2785	-0.568269	0.671028	1.40608	-0.550741	1.03197	0.555831	-0.446143	1.00348	0.432895	-0.439817	1.04849	0.321812	-0.419799	1.08999	0.455057	-0.452406	1.03436	0.785227	-0.462441	1.06795	0.652052	-0.438303	0.92193	0.756668	-0.48798	0.962178	0.628069	-0.443442	1.3656	0.160897	-0.393471	0.800555	1.24486	-0.523411	0.76265	1.19215	-0.557684	0.896605	1.55446	-0.10054	0.783943	1.26793	0.0746734	0.751798	1.23146	-0.00557723	0.936637	1.26921	-0.0126426	0.881951	1.35023	0.0124007	1.026	1.26311	-0.08078	1.03342	1.22108	-0.0517514	0.974109	1.48895	-0.311414	0.960174	1.01864	-0.160727	0.75364	1.09623	-0.213689	0.188047	0.295186	-0.155584	0.281314	0.40795	-0.175105	0.262002	0.476845	-0.245255	0.699562	0.565317	-0.152459	0.486603	0.449903	-0.153096	0.574685	0.554084	-0.124406	0.464719	0.528625	-0.148096	0.600394	0.486437	-0.14296	0.879661	0.727567	-0.138081	0.823802	0.627201	-0.157271	0.773419	0.616848	-0.138173	0.780126	0.768233	-0.0984431	0.729271	0.666313	-0.130411	0.22286	0.246892	-0.206739
689	3.44	0.825089	1.57227	-0.275153	0.933211	1.04145	-0.420484	0.740449	1.09331	-0.321526	1.3268	0.108664	-0.439786	0.828709	1.55981	-0.453726	1.16627	0.143069	-0.397375	1.13371	0.115813	-0.328193	0.566653	1.37338	-0.559276	0.54782	1.32502	-0.475976	0.695688	1.27504	-0.56989	0.673174	1.40298	-0.552302	1.03044	0.554916	-0.445875	1.00054	0.430958	-0.437997	1.04774	0.319591	-0.418395	1.08676	0.452683	-0.452986	1.02985	0.780924	-0.462489	1.06336	0.647975	-0.438992	0.91787	0.753519	-0.490636	0.959115	0.626691	-0.442153	1.36381	0.1585	-0.391878	0.803319	1.24141	-0.524988	0.765408	1.18886	-0.559412	0.896829	1.55317	-0.101395	0.781207	1.26822	0.0741718	0.749044	1.23183	-0.00631542	0.93437	1.26695	-0.0122472	0.880561	1.34998	0.0127456	1.02438	1.25953	-0.0800574	1.03085	1.21747	-0.050511	0.974716	1.48679	-0.311803	0.96038	1.01775	-0.161362	0.753235	1.0944	-0.213456	0.185809	0.311427	-0.156063	0.283952	0.419836	-0.175013	0.267838	0.489595	-0.245295	0.706987	0.560856	-0.152991	0.490917	0.453501	-0.153458	0.582829	0.554835	-0.125949	0.472085	0.533019	-0.149334	0.606156	0.48589	-0.143201	0.883771	0.725322	-0.137916	0.829948	0.624022	-0.156608	0.779533	0.61325	-0.137957	0.783515	0.764559	-0.0983171	0.73455	0.6616	-0.130651	0.219087	0.261469	-0.207853
690	3.445	0.825792	1.57059	-0.276504	0.931361	1.03952	-0.420552	0.738985	1.09093	-0.321406	1.32359	0.104868	-0.43747	0.830112	1.55714	-0.45531	1.16274	0.140486	-0.396494	1.12967	0.113608	-0.327595	0.569193	1.36911	-0.561258	0.550363	1.32063	-0.477938	0.698539	1.27101	-0.571688	0.675497	1.39928	-0.553938	1.02927	0.554414	-0.445584	0.996984	0.428942	-0.436609	1.04627	0.317524	-0.417139	1.08338	0.449921	-0.452964	1.02534	0.777902	-0.462662	1.0606	0.645868	-0.438936	0.913932	0.75054	-0.493799	0.957055	0.625897	-0.441591	1.36045	0.154603	-0.389628	0.806318	1.23749	-0.526632	0.768439	1.18498	-0.561223	0.897006	1.55163	-0.102301	0.778093	1.26831	0.0733848	0.746258	1.23192	-0.00727507	0.931925	1.26419	-0.0117897	0.878791	1.34946	0.0129606	1.02246	1.25502	-0.0790094	1.02797	1.21313	-0.0490461	0.975288	1.48433	-0.312188	0.960426	1.0166	-0.161922	0.7526	1.09224	-0.212805	0.185181	0.327051	-0.156512	0.287969	0.43125	-0.174949	0.275195	0.501709	-0.2452	0.714964	0.555973	-0.15356	0.496114	0.456685	-0.153595	0.591803	0.555108	-0.127439	0.480212	0.536926	-0.150175	0.61251	0.485098	-0.143998	0.887915	0.722867	-0.137726	0.836397	0.620786	-0.156195	0.786023	0.609188	-0.137101	0.786697	0.760356	-0.0987796	0.74006	0.656418	-0.130625	0.216943	0.276188	-0.208317
691	3.45	0.826515	1.56876	-0.277782	0.929029	1.03717	-0.420533	0.737617	1.08821	-0.321125	1.31872	0.100016	-0.434804	0.831592	1.55412	-0.457027	1.1577	0.137323	-0.395442	1.12381	0.110828	-0.326891	0.571969	1.36427	-0.56342	0.553096	1.31572	-0.480057	0.701682	1.26644	-0.573583	0.678024	1.39502	-0.555666	1.02825	0.553741	-0.445288	0.993993	0.426586	-0.434974	1.04407	0.315579	-0.416043	1.08011	0.446984	-0.45216	1.02072	0.776861	-0.462558	1.05862	0.646096	-0.438086	0.910584	0.747917	-0.496934	0.955769	0.625757	-0.441771	1.35552	0.14927	-0.386852	0.809499	1.23309	-0.528413	0.771699	1.18062	-0.563118	0.897141	1.54984	-0.10321	0.774658	1.26823	0.0722696	0.743156	1.23185	-0.00839158	0.929349	1.26101	-0.0112068	0.876606	1.34869	0.0130306	1.02013	1.24961	-0.0774751	1.02489	1.20812	-0.0473532	0.975872	1.48161	-0.312513	0.960276	1.01522	-0.162444	0.751902	1.08974	-0.212591	0.186031	0.342341	-0.157118	0.293268	0.44206	-0.174863	0.283958	0.513176	-0.244875	0.723432	0.55069	-0.15372	0.50191	0.459359	-0.153385	0.601465	0.554815	-0.128737	0.489049	0.540377	-0.150778	0.619171	0.484113	-0.145446	0.892159	0.720208	-0.137497	0.843203	0.617629	-0.15605	0.792925	0.604763	-0.136296	0.790086	0.755772	-0.0988474	0.745995	0.650746	-0.130285	0.216075	0.290993	-0.20834
692	3.455	0.827219	1.56672	-0.278943	0.927522	1.03494	-0.420622	0.736156	1.0852	-0.320743	1.31217	0.0939813	-0.431769	0.833019	1.55084	-0.458833	1.15108	0.133509	-0.394238	1.11617	0.107561	-0.326108	0.574978	1.35893	-0.565775	0.555976	1.31032	-0.482359	0.705095	1.2613	-0.5756	0.680742	1.3902	-0.557445	1.02703	0.552549	-0.445067	0.991072	0.424316	-0.43421	1.04115	0.313742	-0.415108	1.0771	0.443896	-0.450961	1.01594	0.778103	-0.462104	1.05751	0.648616	-0.437566	0.908226	0.746016	-0.499195	0.955368	0.625859	-0.442295	1.34911	0.142889	-0.383261	0.812835	1.22822	-0.530187	0.775125	1.1758	-0.565039	0.897097	1.5478	-0.104038	0.770947	1.26787	0.0709984	0.739825	1.23161	-0.00972004	0.926675	1.25743	-0.0104677	0.874144	1.34762	0.0130062	1.01767	1.24381	-0.0757653	1.02152	1.20253	-0.0454259	0.976447	1.47865	-0.312752	0.959947	1.01364	-0.162863	0.751207	1.08696	-0.212523	0.188234	0.357251	-0.157822	0.299736	0.452179	-0.174627	0.293927	0.523961	-0.244391	0.732395	0.545074	-0.152897	0.508562	0.461841	-0.15344	0.611638	0.553923	-0.129747	0.498666	0.543332	-0.151152	0.626607	0.482682	-0.146216	0.896672	0.717668	-0.136975	0.850347	0.614175	-0.155835	0.800314	0.600004	-0.135615	0.793873	0.750931	-0.0982764	0.752342	0.644684	-0.129746	0.215999	0.305137	-0.208936
693	3.46	0.827843	1.56442	-0.280196	0.926798	1.03279	-0.420776	0.734909	1.0812	-0.320177	1.30399	0.0868629	-0.428372	0.834418	1.5474	-0.46081	1.14292	0.129093	-0.392968	1.10691	0.103907	-0.325244	0.578245	1.35311	-0.568351	0.558973	1.30448	-0.484843	0.708644	1.25567	-0.577738	0.683667	1.38479	-0.559299	1.02528	0.550682	-0.444933	0.987795	0.422503	-0.434685	1.03752	0.312003	-0.414325	1.07428	0.440629	-0.450325	1.01138	0.780795	-0.461736	1.05743	0.652348	-0.437536	0.906604	0.744627	-0.500644	0.955058	0.625217	-0.443166	1.3411	0.135427	-0.37937	0.816343	1.22292	-0.531924	0.778813	1.17054	-0.566922	0.896882	1.54558	-0.10471	0.767115	1.26726	0.0697467	0.736294	1.23119	-0.0112109	0.923729	1.25332	-0.00969187	0.871497	1.34626	0.0129053	1.01522	1.23756	-0.0739832	1.01789	1.19635	-0.0433137	0.976984	1.47538	-0.312941	0.959448	1.01178	-0.163134	0.750524	1.08376	-0.212478	0.191715	0.371661	-0.158492	0.307206	0.461636	-0.174494	0.304832	0.533895	-0.244078	0.741698	0.539157	-0.152082	0.516076	0.464013	-0.153614	0.622281	0.552552	-0.130578	0.508935	0.545748	-0.151432	0.63478	0.480741	-0.146792	0.901595	0.715399	-0.135835	0.857786	0.610399	-0.155725	0.80816	0.594875	-0.135	0.798082	0.745795	-0.0973946	0.759077	0.638309	-0.129154	0.216804	0.318485	-0.210083
694	3.465	0.828445	1.56185	-0.281618	0.925876	1.03059	-0.420931	0.734019	1.0767	-0.319034	1.29423	0.0788483	-0.424639	0.835918	1.54366	-0.462826	1.13345	0.124175	-0.391467	1.09616	0.0999259	-0.324315	0.581703	1.34682	-0.571153	0.562153	1.29814	-0.487577	0.712385	1.24956	-0.57996	0.686796	1.37888	-0.561233	1.02323	0.548381	-0.444924	0.984615	0.420855	-0.435843	1.03321	0.310356	-0.413686	1.07214	0.437463	-0.449168	1.00762	0.783481	-0.462011	1.05736	0.655469	-0.437139	0.905415	0.743378	-0.500899	0.954721	0.623865	-0.444453	1.33148	0.126978	-0.3753	0.820114	1.21722	-0.533583	0.782807	1.16485	-0.568802	0.896892	1.54308	-0.105515	0.76317	1.26646	0.0685438	0.732612	1.23055	-0.0127253	0.920528	1.24878	-0.00889641	0.86855	1.34452	0.0125766	1.01265	1.23073	-0.0720342	1.01394	1.18962	-0.0410166	0.977516	1.47183	-0.313163	0.958808	1.00967	-0.163216	0.749661	1.08015	-0.212337	0.196471	0.385378	-0.159038	0.315647	0.470523	-0.174829	0.316493	0.543172	-0.243662	0.751251	0.532875	-0.151584	0.524355	0.465649	-0.153399	0.633318	0.550531	-0.131393	0.51973	0.54755	-0.151674	0.643485	0.478385	-0.147418	0.906761	0.712825	-0.135117	0.865543	0.606402	-0.155671	0.816524	0.589388	-0.134501	0.802575	0.740209	-0.0969529	0.766204	0.631773	-0.128614	0.219034	0.331166	-0.211397
695	3.47	0.829073	1.55904	-0.283218	0.924579	1.02821	-0.421037	0.733012	1.0724	-0.318164	1.28304	0.0700683	-0.420646	0.837449	1.53967	-0.464704	1.12266	0.118824	-0.389902	1.08393	0.0955746	-0.323525	0.585314	1.34002	-0.574043	0.565515	1.29137	-0.490549	0.716292	1.243	-0.582243	0.690052	1.37252	-0.563259	1.02124	0.546026	-0.445051	0.981548	0.419084	-0.437102	1.02822	0.308792	-0.413184	1.06982	0.433925	-0.44834	1.00524	0.784986	-0.463151	1.05722	0.657271	-0.436289	0.904454	0.741975	-0.499771	0.954444	0.622107	-0.446073	1.32035	0.117738	-0.371026	0.824086	1.21114	-0.53526	0.786909	1.1588	-0.570734	0.897012	1.54019	-0.106482	0.759054	1.26547	0.0671945	0.728852	1.22963	-0.0143398	0.917093	1.24382	-0.00806221	0.865441	1.34238	0.0120772	1.00981	1.22328	-0.0698393	1.00964	1.18239	-0.038522	0.978089	1.46803	-0.313389	0.95797	1.00729	-0.163127	0.748709	1.07617	-0.212106	0.202597	0.39815	-0.159584	0.325017	0.47886	-0.175686	0.328643	0.551925	-0.243157	0.76098	0.526235	-0.151718	0.533093	0.466781	-0.153156	0.644595	0.547914	-0.132169	0.530985	0.548774	-0.151809	0.652422	0.475559	-0.147525	0.9123	0.710099	-0.134404	0.87366	0.602289	-0.155584	0.825353	0.5837	-0.134072	0.807289	0.734156	-0.0967565	0.77384	0.625042	-0.127964	0.223309	0.343287	-0.212494
